# xmcd
#
# Track frame offsets:
#	150
#	11102
#	24617
#	37297
#	68247
#	83304
#	94830
#	108429
#	137020
#	158532
#	178860
#	209350
#	221690
#	233172
#
# Disc length: 3457 seconds
#
# Revision: 0
# Processed by: cddbd v1.5.1PL2 Copyright (c) Steve Scherf et al.
# Submitted via: audiograbber 1.83.01
#
DISCID=bd0d7f0e
DTITLE=Oyez Blues band - Still singing the Blues
DYEAR=1900
DGENRE=Blues
TTITLE0=Bad luck and trouble
TTITLE1=Hot fire
TTITLE2=Bills to pay
TTITLE3=Promise Blues
TTITLE4=Up and down
TTITLE5=Boarderline
TTITLE6=Gone too far
TTITLE7=Steamroller
TTITLE8=Treat me
TTITLE9=Boogie
TTITLE10=Train
TTITLE11=Back in Town
TTITLE12=Why don¥t we do it
TTITLE13=Maach bloﬂ ke Blues
EXTD=
EXTT0=
EXTT1=
EXTT2=
EXTT3=
EXTT4=
EXTT5=
EXTT6=
EXTT7=
EXTT8=
EXTT9=
EXTT10=
EXTT11=
EXTT12=
EXTT13=
PLAYORDER=
